<?xml version="1.0" encoding="UTF-8" standalone="no"?>
<svg width="181px" height="271px" viewBox="0 0 181 271" version="1.1" xmlns="http://www.w3.org/2000/svg" xmlns:xlink="http://www.w3.org/1999/xlink">
    <!-- Generator: Sketch 3.6.1 (26313) - http://www.bohemiancoding.com/sketch -->
    <title>White Curved</title>
    <desc>Created with Sketch.</desc>
    <defs></defs>
    <g id="Page-1" stroke="none" stroke-width="1" fill="none" fill-rule="evenodd">
        <g id="Artboard-3" transform="translate(-50.000000, -4.000000)" fill="#000000">
            <g id="White-Curved" transform="translate(50.000000, 4.000000)">
                <path d="M72.6816173,191.020845 C65.8000675,202.472364 53.3773743,210.117535 39.1955033,210.117535 C17.5484245,210.117535 0,192.305287 0,170.332765 C0,148.360242 17.5484245,130.547994 39.1955033,130.547994 C53.3773743,130.547994 65.8000675,138.193165 72.6816173,149.644684 L39.1955033,149.644684 C27.9390223,149.644684 18.8138416,158.907053 18.8138416,170.332765 C18.8138416,181.758476 27.9390223,191.020845 39.1955033,191.020845 L72.6816173,191.020845 Z" id="Oval-1"></path>
                <rect id="Rectangle-25" x="40.7633234" y="130.547994" width="133.264711" height="19.09669"></rect>
                <path d="M180.861206,251.493697 C173.979657,262.945216 161.556963,270.590387 147.375092,270.590387 C125.728014,270.590387 108.179589,252.778138 108.179589,230.805616 C108.179589,208.833094 125.728014,191.020845 147.375092,191.020845 C161.556963,191.020845 173.979657,198.666017 180.861206,210.117535 L147.375092,210.117535 C136.118611,210.117535 126.993431,219.379905 126.993431,230.805616 C126.993431,242.231328 136.118611,251.493697 147.375092,251.493697 L180.861206,251.493697 Z" id="Oval-1" transform="translate(144.520398, 230.805616) scale(-1, 1) translate(-144.520398, -230.805616) "></path>
                <rect id="Rectangle-25" x="40.7633234" y="191.020845" width="98.7726682" height="19.09669"></rect>
                <rect id="Rectangle-25" x="0" y="251.493697" width="141.103812" height="19.09669"></rect>
                <rect id="Rectangle-2" x="0" y="0" width="17.5293624" height="118.222433"></rect>
                <path d="M174.872245,100.377537 L174.872245,118.222433 L-2.84217094e-14,118.222433 L-2.84217094e-14,100.377537 L174.872245,100.377537 L174.872245,100.377537 Z" id="Rectangle-2"></path>
            </g>
        </g>
    </g>
</svg>