<svg class="site-logo b" viewBox="0 0 932 378" version="1.1" xmlns="http://www.w3.org/2000/svg" xmlns:xlink="http://www.w3.org/1999/xlink">
    <g id="Page-1" stroke="none" stroke-width="1" fill="none" fill-rule="evenodd">
        <path d="M49.4384766,0 L49.4384766,371.118164 L0,371.118164 L0,0 L49.4384766,0 Z M171.499023,157.104492 L171.499023,279.931641 C171.499023,315.381037 185.488141,333.105469 213.466797,333.105469 C241.445452,333.105469 255.43457,315.381037 255.43457,279.931641 L255.43457,157.104492 L304.873047,157.104492 L304.873047,281.030273 C304.873047,298.169031 302.749045,312.963805 298.500977,325.415039 C294.399394,336.547907 287.294972,346.581987 277.1875,355.517578 C260.488198,370.019604 239.248176,377.270508 213.466797,377.270508 C187.831903,377.270508 166.665123,370.019604 149.96582,355.517578 C139.711863,346.581987 132.460959,336.547907 128.212891,325.415039 C124.111308,315.454052 122.060547,300.659278 122.060547,281.030273 L122.060547,157.104492 L171.499023,157.104492 Z M426.713867,0 L426.713867,226.318359 L496.367188,157.104492 L562.724609,157.104492 L469.780273,246.972656 L569.536133,371.118164 L505.375977,371.118164 L434.624023,280.810547 L426.713867,288.720703 L426.713867,371.118164 L377.275391,371.118164 L377.275391,0 L426.713867,0 Z M799.042969,275.756836 L645.673828,275.756836 C646.992194,293.335049 652.705028,307.324167 662.8125,317.724609 C672.919972,327.978567 685.88371,333.105469 701.704102,333.105469 C714.008851,333.105469 724.189413,330.175811 732.246094,324.316406 C740.15629,318.457002 749.164989,307.617267 759.272461,291.796875 L801.020508,315.087891 C794.575163,326.074274 787.763708,335.485801 780.585938,343.322754 C773.408167,351.159707 765.717814,357.604955 757.514648,362.658691 C749.311482,367.712428 740.449266,371.411121 730.927734,373.754883 C721.406202,376.098645 711.079157,377.270508 699.946289,377.270508 C668.012536,377.270508 642.378026,367.016704 623.041992,346.508789 C603.705958,325.854389 594.038086,298.462085 594.038086,264.331055 C594.038086,230.492995 603.412992,203.100691 622.163086,182.15332 C641.059665,161.49892 666.108242,151.171875 697.30957,151.171875 C728.803868,151.171875 753.705963,161.205954 772.016602,181.274414 C790.180755,201.196389 799.262695,228.808417 799.262695,264.111328 L799.042969,275.756836 Z M748.286133,235.327148 C741.401333,208.959829 724.775522,195.776367 698.408203,195.776367 C692.402314,195.776367 686.762722,196.691885 681.489258,198.522949 C676.215794,200.354013 671.418479,202.990705 667.097168,206.433105 C662.775857,209.875505 659.077164,214.013648 656.000977,218.847656 C652.924789,223.681665 650.581063,229.174774 648.969727,235.327148 L748.286133,235.327148 Z M870.786133,346.508789 C870.786133,338.305623 873.789032,331.201202 879.794922,325.195312 C885.800811,319.189423 892.978474,316.186523 901.328125,316.186523 C909.677776,316.186523 916.855439,319.189423 922.861328,325.195312 C928.867218,331.201202 931.870117,338.378865 931.870117,346.728516 C931.870117,355.224652 928.867218,362.475556 922.861328,368.481445 C917.001924,374.34085 909.824261,377.270508 901.328125,377.270508 C892.685504,377.270508 885.4346,374.34085 879.575195,368.481445 C873.715791,362.622041 870.786133,355.297896 870.786133,346.508789 L870.786133,346.508789 Z" fill="#333333"></path>
    </g>
</svg>