<?xml version="1.0" encoding="UTF-8" standalone="no"?>
<svg width="274px" height="358px" viewBox="0 0 274 358" version="1.1" xmlns="http://www.w3.org/2000/svg" xmlns:xlink="http://www.w3.org/1999/xlink" xmlns:sketch="http://www.bohemiancoding.com/sketch/ns">
    <!-- Generator: Sketch 3.4.4 (17249) - http://www.bohemiancoding.com/sketch -->
    <title>Black Curved</title>
    <desc>Created with Sketch.</desc>
    <defs></defs>
    <g id="Page-1" stroke="#000000" stroke-width="1" fill="none" fill-rule="evenodd" sketch:type="MSPage">
        <g id="Black-Curved" sketch:type="MSLayerGroup" fill="#000000">
            <g id="S" transform="translate(0.000000, 172.719298)" sketch:type="MSShapeGroup">
                <path d="M109.901356,80.0075758 C99.4958136,95.1583124 80.7115476,105.273126 59.2672414,105.273126 C26.5348478,105.273126 0,81.706934 0,52.636563 C0,23.566192 26.5348478,0 59.2672414,0 C80.7115476,0 99.4958136,10.1148136 109.901356,25.2655502 L59.2672414,25.2655502 C42.2463967,25.2655502 28.4482759,37.5199701 28.4482759,52.636563 C28.4482759,67.7531559 42.2463967,80.0075758 59.2672414,80.0075758 L109.901356,80.0075758 Z" id="Oval-1"></path>
                <rect id="Rectangle-25" x="61.637931" y="0" width="201.508621" height="25.2655502"></rect>
                <path d="M273.478942,160.015152 C263.0734,175.165888 244.289134,185.280702 222.844828,185.280702 C190.112434,185.280702 163.577586,161.71451 163.577586,132.644139 C163.577586,103.573768 190.112434,80.0075758 222.844828,80.0075758 C244.289134,80.0075758 263.0734,90.1223894 273.478942,105.273126 L222.844828,105.273126 C205.823983,105.273126 192.025862,117.527546 192.025862,132.644139 C192.025862,147.760732 205.823983,160.015152 222.844828,160.015152 L273.478942,160.015152 Z" id="Oval-1" transform="translate(218.528264, 132.644139) scale(-1, 1) translate(-218.528264, -132.644139) "></path>
                <rect id="Rectangle-25" x="61.637931" y="80.0075758" width="149.353448" height="25.2655502"></rect>
                <rect id="Rectangle-25" x="11.8534483" y="160.015152" width="201.508621" height="25.2655502"></rect>
            </g>
            <g id="L" sketch:type="MSShapeGroup">
                <rect id="Rectangle-2" x="0" y="0" width="26.5060241" height="156.412175"></rect>
                <path d="M264.423077,132.80279 L264.423077,156.412175 L5.68434189e-14,156.412175 L5.68434189e-14,132.80279 L264.423077,132.80279 L264.423077,132.80279 Z" id="Rectangle-2"></path>
            </g>
        </g>
    </g>
</svg>
